<svg width="106" height="32" viewBox="0 0 106 32" fill="none" xmlns="http://www.w3.org/2000/svg">
<path d="M33.0838 7.75615L19.5823 0.348948C19.1699 0.122925 18.7024 0 18.231 0C17.7596 0 17.2922 0.122925 16.8758 0.348948L3.45686 7.75615C1.32382 8.93385 0 11.1901 0 13.6407V24.4303C0 25.3344 0.176771 26.2147 0.522458 27.0434C0.856359 27.8405 1.33561 28.5582 1.94449 29.1768C2.55337 29.7914 3.26438 30.2752 4.05789 30.6122C4.87889 30.9612 5.75096 31.1396 6.64661 31.1396H14.0906V26.1631H6.64661C5.6999 26.1631 4.92996 25.3859 4.92996 24.4303V13.6407C4.92996 13.0062 5.27172 12.4273 5.82167 12.122L15.8584 6.58242V31.1396H29.9058C30.8014 31.1396 31.6735 30.9612 32.4945 30.6122C33.288 30.2752 33.9951 29.7914 34.6079 29.1768C35.2168 28.5622 35.696 27.8444 36.0299 27.0434C36.3756 26.2147 36.5524 25.3344 36.5524 24.4303V13.6486C36.5524 11.1861 35.2207 8.92988 33.0798 7.75219M31.6224 24.4303C31.6224 25.3859 30.8525 26.1631 29.9058 26.1631H20.7883V6.67759L30.7268 12.1299C31.2807 12.4313 31.6224 13.0142 31.6224 13.6526V15.8533H22.8074V20.8298H31.6224V24.4343V24.4303Z" fill="#385BA9"/>
<path d="M41.9185 30.9849V18.8749H47.4887C48.2429 18.8749 48.9068 19.0176 49.4764 19.3071C50.046 19.5966 50.486 19.9852 50.7885 20.4729C51.0909 20.9646 51.2441 21.5078 51.2441 22.1066C51.2441 22.6618 51.1145 23.1772 50.8592 23.657C50.6038 24.1368 50.2581 24.5215 49.8221 24.807C50.4742 25.0965 50.9574 25.5009 51.2795 26.0283C51.5977 26.5517 51.7587 27.1227 51.7587 27.7334C51.7587 28.344 51.6055 28.8952 51.2952 29.3869C50.9849 29.8786 50.5449 30.2672 49.9674 30.5567C49.39 30.8462 48.7065 30.9889 47.9208 30.9889H41.9224L41.9185 30.9849ZM44.4011 23.9108H47.3984C47.8108 23.9108 48.1447 23.78 48.4001 23.5143C48.6554 23.2486 48.785 22.9314 48.785 22.5626C48.785 22.1938 48.6554 21.8766 48.4001 21.6109C48.1408 21.3453 47.8069 21.2144 47.3984 21.2144H44.4011V23.9148V23.9108ZM44.4011 26.0045V28.6533H47.7441C48.1565 28.6533 48.4904 28.5265 48.7458 28.2727C49.0011 28.0189 49.1307 27.7056 49.1307 27.3369C49.1307 26.9681 49.0011 26.6548 48.7458 26.3931C48.4904 26.1314 48.1526 26.0045 47.7441 26.0045H44.4011Z" fill="#454243"/>
<path d="M52.8188 26.3853C52.8188 25.5327 53.031 24.7436 53.4513 24.022C53.8755 23.3003 54.4412 22.7293 55.1562 22.301C55.8711 21.8728 56.6489 21.6626 57.4974 21.6626C58.3459 21.6626 59.1237 21.8767 59.8386 22.301C60.5536 22.7293 61.1192 23.3042 61.5435 24.0299C61.9677 24.7555 62.1759 25.5407 62.1759 26.3813C62.1759 27.222 61.9638 28.0269 61.5435 28.7526C61.1192 29.4782 60.5536 30.0572 59.8386 30.4815C59.1237 30.9097 58.3459 31.1199 57.4974 31.1199C56.6489 31.1199 55.8711 30.9018 55.1562 30.4696C54.4412 30.0373 53.8755 29.4584 53.4513 28.7288C53.027 28.0031 52.8188 27.218 52.8188 26.3774M55.1326 26.3853C55.1326 26.8254 55.2387 27.2299 55.4508 27.6066C55.6629 27.9833 55.9497 28.2807 56.3071 28.5067C56.6685 28.7328 57.0653 28.8438 57.4974 28.8438C57.9295 28.8438 58.3302 28.7328 58.6877 28.5067C59.0491 28.2807 59.3319 27.9833 59.544 27.6066C59.7561 27.2299 59.8622 26.8254 59.8622 26.3853C59.8622 25.9451 59.7561 25.5407 59.544 25.164C59.3319 24.7873 59.0451 24.4938 58.6877 24.2718C58.3263 24.0537 57.9295 23.9427 57.4974 23.9427C57.0653 23.9427 56.6646 24.0537 56.3071 24.2797C55.9457 24.5057 55.6629 24.8031 55.4508 25.1719C55.2387 25.5407 55.1326 25.9451 55.1326 26.3813" fill="#454243"/>
<path d="M63.583 21.8172H66.0696V22.6658C66.3799 22.3526 66.7453 22.1107 67.1774 21.9322C67.6056 21.7538 68.0809 21.6626 68.6073 21.6626C69.2711 21.6626 69.8879 21.8093 70.4653 22.1027C71.0428 22.3962 71.5063 22.8205 71.852 23.3756C72.2016 23.9308 72.3745 24.5692 72.3745 25.2948V30.985H69.8879V25.9332C69.8879 25.5526 69.8093 25.2155 69.6483 24.9221C69.4872 24.6287 69.2711 24.3987 68.9962 24.2401C68.7212 24.0775 68.4187 23.9982 68.0887 23.9982C67.6881 23.9982 67.3345 24.0973 67.0242 24.2995C66.7138 24.5018 66.4781 24.7714 66.3132 25.1124C66.1482 25.4534 66.0657 25.8301 66.0657 26.2465V30.985H63.5791V21.8172H63.583Z" fill="#454243"/>
<path d="M76.4866 21.8173V26.8691C76.4866 27.2497 76.5652 27.5868 76.7262 27.8802C76.8873 28.1737 77.1033 28.4036 77.3783 28.5623C77.6533 28.7248 77.9557 28.8041 78.2857 28.8041C78.6864 28.8041 79.04 28.705 79.3464 28.5028C79.6567 28.3005 79.8924 28.0309 80.0574 27.6899C80.2224 27.3489 80.3048 26.9722 80.3048 26.5558V21.8133H82.7914V30.9811H80.3048V30.1325C79.9945 30.4458 79.6292 30.6877 79.1971 30.8661C78.7689 31.0445 78.2936 31.1357 77.7672 31.1357C77.1033 31.1357 76.4827 30.989 75.9091 30.6956C75.3317 30.4022 74.8681 29.9779 74.5225 29.4227C74.1728 28.8676 74 28.2292 74 27.5035V21.8093H76.4866V21.8173Z" fill="#454243"/>
<path d="M84.336 24.5136C84.336 23.9267 84.497 23.4152 84.8152 22.983C85.1334 22.5508 85.5812 22.2216 86.1508 21.9956C86.7204 21.7696 87.3804 21.6586 88.1228 21.6586C88.7513 21.6586 89.372 21.7339 89.9809 21.8846C90.5937 22.0353 91.1397 22.2375 91.6189 22.4913V24.8625C90.8058 24.4581 90.1184 24.1805 89.5527 24.0338C88.987 23.8831 88.5117 23.8078 88.1228 23.8078C87.8596 23.8078 87.6357 23.8395 87.455 23.9029C87.2704 23.9664 87.1329 24.0497 87.0425 24.1528C86.9522 24.2558 86.905 24.3708 86.905 24.4977C86.905 24.7039 87.019 24.8625 87.2468 24.9656C87.4746 25.0687 87.8517 25.1718 88.3781 25.2789C88.5156 25.3146 88.6531 25.3463 88.7985 25.3741C88.9399 25.4018 89.0852 25.4415 89.2345 25.4851C90.2166 25.7508 90.9354 26.1195 91.395 26.5914C91.8507 27.0633 92.0785 27.6462 92.0785 28.3401C92.0785 29.3196 91.6975 30.0293 90.9394 30.4695C90.1812 30.9096 89.2973 31.1277 88.2917 31.1277C87.7103 31.1277 87.1132 31.0484 86.5083 30.8859C85.9033 30.7233 85.2787 30.4655 84.6384 30.1087V27.6184C85.0863 27.9317 85.6519 28.2291 86.3433 28.5186C87.0347 28.808 87.6828 28.9508 88.2878 28.9508C88.5038 28.9508 88.7042 28.931 88.8888 28.8913C89.0734 28.8516 89.2227 28.7803 89.3445 28.6851C89.4623 28.586 89.5252 28.4591 89.5252 28.2965C89.5252 28.0546 89.3641 27.8603 89.0459 27.7176C88.7238 27.5748 88.1896 27.4202 87.4354 27.2576C86.3708 27.0276 85.5891 26.6985 85.0863 26.2702C84.5834 25.842 84.332 25.2591 84.332 24.5215" fill="#454243"/>
<path d="M41.9185 5.01611H44.4875V14.7192H50.3328V17.1262H41.9185V5.01611Z" fill="#454243"/>
<path d="M51.4443 12.5423C51.4443 11.6778 51.6565 10.8808 52.0768 10.1551C52.501 9.42949 53.0706 8.85452 53.7895 8.4342C54.5084 8.01387 55.2862 7.80371 56.119 7.80371C56.8496 7.80371 57.5371 7.97025 58.1852 8.29541C58.8294 8.62453 59.3715 9.07261 59.8115 9.64362C60.2515 10.2146 60.5461 10.857 60.6954 11.5708C60.7739 11.9157 60.8171 12.2528 60.8171 12.574C60.8171 12.8952 60.7818 13.1846 60.715 13.4741H53.8956C53.9859 13.8191 54.1391 14.1125 54.3591 14.3465C54.5752 14.5844 54.8344 14.7589 55.1369 14.8739C55.4394 14.9889 55.7693 15.0483 56.1229 15.0483C56.5118 15.0483 56.8967 14.9809 57.2778 14.8501C57.6588 14.7192 57.9888 14.5249 58.2638 14.2711L60.4243 14.8937C60.0708 15.6074 59.4815 16.1824 58.6605 16.6146C57.8395 17.0469 56.991 17.2649 56.1229 17.2649C55.2547 17.2649 54.4769 17.0508 53.7581 16.6265C53.0392 16.1983 52.4735 15.6233 52.0611 14.8977C51.6486 14.172 51.4443 13.3869 51.4443 12.5462M53.8956 11.5708H58.2991C58.2088 11.2932 58.0634 11.0394 57.8631 10.8015C57.6628 10.5636 57.4153 10.3772 57.1167 10.2305C56.8182 10.0877 56.4843 10.0164 56.1072 10.0164C55.7301 10.0164 55.3883 10.0877 55.0858 10.2305C54.7833 10.3732 54.5319 10.5636 54.3316 10.8015C54.1313 11.0394 53.9859 11.2932 53.8956 11.5708Z" fill="#454243"/>
<path d="M62.0195 12.5423C62.0195 11.6778 62.2238 10.8808 62.6284 10.1551C63.033 9.42949 63.579 8.85452 64.2665 8.4342C64.9539 8.01387 65.7003 7.80371 66.5135 7.80371C67.0163 7.80371 67.4759 7.88302 67.8923 8.0456C68.3087 8.20817 68.6818 8.43816 69.0158 8.73953V7.96232H71.5023V17.1301H69.0158V16.3688C68.6858 16.6583 68.3087 16.8803 67.8923 17.035C67.4759 17.1896 67.0163 17.2689 66.5135 17.2689C65.7121 17.2689 64.9697 17.0548 64.2783 16.6186C63.5869 16.1864 63.0369 15.6114 62.6323 14.8897C62.2277 14.168 62.0235 13.3869 62.0235 12.5462M64.3333 12.5423C64.3333 12.9824 64.4393 13.3869 64.6515 13.7636C64.8636 14.1403 65.1503 14.4377 65.5157 14.6637C65.881 14.8897 66.2935 15.0008 66.7491 15.0008C67.2048 15.0008 67.5859 14.8897 67.959 14.6637C68.3322 14.4377 68.6269 14.1363 68.8508 13.7556C69.0747 13.375 69.1847 12.9705 69.1847 12.5462C69.1847 12.1219 69.0747 11.7175 68.8508 11.3368C68.6269 10.9561 68.3322 10.6508 67.959 10.4208C67.5859 10.1908 67.1852 10.0758 66.7491 10.0758C66.3131 10.0758 65.8967 10.1869 65.5235 10.4129C65.1503 10.6389 64.8597 10.9403 64.6475 11.3209C64.4354 11.7016 64.3293 12.11 64.3293 12.5502" fill="#454243"/>
<path d="M73.0425 10.6548C73.0425 10.068 73.2036 9.55644 73.5218 9.12422C73.8399 8.692 74.2878 8.36288 74.8574 8.13686C75.427 7.91083 76.0869 7.7998 76.8293 7.7998C77.4579 7.7998 78.0785 7.87515 78.6874 8.02583C79.3002 8.17651 79.8462 8.37874 80.3255 8.63252V11.0038C79.5123 10.5993 78.8249 10.3217 78.2592 10.175C77.6936 10.0243 77.2182 9.949 76.8293 9.949C76.5661 9.949 76.3422 9.98073 76.1615 10.0442C75.9769 10.1076 75.8394 10.1909 75.7491 10.294C75.6587 10.3971 75.6116 10.5121 75.6116 10.639C75.6116 10.8452 75.7255 11.0038 75.9533 11.1069C76.1812 11.21 76.5583 11.3131 77.0847 11.4201C77.2222 11.4558 77.3597 11.4875 77.505 11.5153C77.6464 11.5431 77.7918 11.5827 77.941 11.6263C78.9231 11.892 79.642 12.2608 80.1016 12.7327C80.5573 13.2045 80.7851 13.7874 80.7851 14.4814C80.7851 15.4608 80.4041 16.1706 79.6459 16.6107C78.8877 17.0509 78.0039 17.269 76.9983 17.269C76.4169 17.269 75.8198 17.1897 75.2148 17.0271C74.6099 16.8645 73.9853 16.6068 73.345 16.2499V13.7597C73.7928 14.0729 74.3585 14.3703 75.0498 14.6598C75.7412 14.9493 76.3894 15.092 76.9943 15.092C77.2104 15.092 77.4107 15.0722 77.5954 15.0325C77.78 14.9929 77.9293 14.9215 78.051 14.8263C78.1728 14.7312 78.2317 14.6003 78.2317 14.4377C78.2317 14.1959 78.0707 14.0016 77.7525 13.8588C77.4304 13.7161 76.8961 13.5614 76.1419 13.3988C75.0773 13.1688 74.2956 12.8397 73.7928 12.4115C73.29 11.9832 73.0386 11.4003 73.0386 10.6628" fill="#454243"/>
<path d="M82.2618 4.68698C82.5603 4.39751 82.9178 4.25476 83.342 4.25476C83.7663 4.25476 84.1238 4.39751 84.4223 4.68698C84.7209 4.97645 84.8701 5.3254 84.8701 5.74175C84.8701 6.15811 84.7209 6.50706 84.4223 6.7886C84.1238 7.07013 83.7663 7.21288 83.342 7.21288C82.9178 7.21288 82.5603 7.07013 82.2618 6.7886C81.9632 6.50706 81.8179 6.15811 81.8179 5.74175C81.8179 5.3254 81.9671 4.97248 82.2618 4.68698ZM82.0732 7.9544H84.5598V17.1222H82.0732V7.9544Z" fill="#454243"/>
<path d="M86.3589 7.95445H88.8455V8.80303C89.1558 8.48977 89.5212 8.24789 89.9533 8.06945C90.3814 7.89101 90.8568 7.7998 91.3831 7.7998C92.047 7.7998 92.6638 7.94652 93.2412 8.23995C93.8187 8.53339 94.2822 8.95768 94.6279 9.51282C94.9775 10.068 95.1503 10.7064 95.1503 11.432V17.1223H92.6638V12.0704C92.6638 11.6898 92.5852 11.3527 92.4241 11.0593C92.2631 10.7659 92.047 10.5359 91.772 10.3773C91.4971 10.2147 91.1946 10.1354 90.8646 10.1354C90.4639 10.1354 90.1104 10.2385 89.8001 10.4367C89.4897 10.639 89.254 10.9086 89.089 11.2496C88.9241 11.5906 88.8416 11.9673 88.8416 12.3837V17.1223H86.355V7.95445H86.3589Z" fill="#454243"/>
<path d="M96.521 12.4194C96.521 11.5431 96.7174 10.75 97.1142 10.0402C97.507 9.33042 98.0412 8.77924 98.7169 8.38667C99.3925 7.9941 100.135 7.7998 100.944 7.7998H101.011C101.514 7.8117 101.973 7.89894 102.39 8.06152C102.806 8.22409 103.179 8.45408 103.513 8.75148V7.95445H106V16.6583C106 17.499 105.807 18.2603 105.418 18.9423C105.03 19.6244 104.491 20.1557 103.808 20.5404C103.124 20.929 102.347 21.1193 101.478 21.1193C100.783 21.1193 100.123 20.9884 99.4986 20.7307C98.874 20.4729 98.3358 20.0685 97.8802 19.5292C97.4245 18.986 97.1024 18.3237 96.9217 17.5386H99.4083C99.534 17.8519 99.7068 18.0977 99.9229 18.2841C100.139 18.4705 100.379 18.5974 100.642 18.6727C100.905 18.748 101.172 18.7837 101.447 18.7837C101.883 18.7837 102.256 18.7004 102.57 18.5339C102.885 18.3674 103.12 18.1255 103.282 17.8083C103.443 17.491 103.521 17.1064 103.521 16.6583V16.1904C103.199 16.4561 102.834 16.6623 102.417 16.813C102.001 16.9636 101.533 17.039 101.019 17.039C100.162 17.039 99.3925 16.8328 98.7051 16.4244C98.0216 16.0159 97.4873 15.4568 97.1024 14.755C96.7174 14.0531 96.5288 13.2719 96.5288 12.4194M98.8347 12.4194C98.8347 12.8476 98.9447 13.2442 99.1608 13.613C99.3768 13.9817 99.6715 14.2752 100.045 14.4853C100.418 14.6994 100.819 14.8065 101.255 14.8065C101.691 14.8065 102.091 14.6994 102.464 14.4853C102.838 14.2712 103.132 13.9817 103.356 13.613C103.58 13.2442 103.69 12.8476 103.69 12.4194C103.69 11.9911 103.58 11.5946 103.364 11.2258C103.148 10.8571 102.849 10.5676 102.472 10.3535C102.095 10.1393 101.691 10.0323 101.255 10.0323C100.819 10.0323 100.418 10.1393 100.045 10.3535C99.6715 10.5676 99.3768 10.8571 99.1608 11.2258C98.9447 11.5946 98.8347 11.9951 98.8347 12.4194Z" fill="#454243"/>
</svg>
