<svg width="105" height="32" viewBox="0 0 105 32" fill="none" xmlns="http://www.w3.org/2000/svg">
<path d="M38.1324 25.8603C38.1324 26.4036 37.7719 26.803 37.0587 27.0547C36.5689 27.2185 35.9929 27.2984 35.3306 27.2984H30.5303V26.0281H35.3306C36.369 26.0281 36.8863 25.8643 36.8863 25.5367V24.6059C36.8863 24.2863 36.369 24.1225 35.3306 24.1225H33.0931C31.3845 24.1225 30.5303 23.7191 30.5303 22.9081V22.0892C30.5303 21.2423 31.3845 20.8188 33.0931 20.8188H37.866V22.0892H33.0931C32.6267 22.0892 32.3093 22.1092 32.1369 22.1491C31.9136 22.201 31.7999 22.3049 31.7999 22.4567V22.5606C31.7999 22.7204 31.9253 22.8122 32.1683 22.8402C32.231 22.8482 32.5366 22.8482 33.0891 22.8482H35.3267C36.0281 22.8482 36.6042 22.9241 37.0626 23.0759C37.7758 23.3116 38.1285 23.7111 38.1285 24.2783V25.8563L38.1324 25.8603Z" fill="#EE9521"/>
<path d="M46.5887 27.2985H38.7515V20.8149H46.5887V22.0893H39.9976V22.8523H45.3779V24.1226H39.9976V26.0281H46.5887V27.2985Z" fill="#EE9521"/>
<path d="M59.132 27.2983H57.8859V22.984L53.7988 27.1226C53.6773 27.2384 53.5323 27.2983 53.3599 27.2983C53.1875 27.2983 53.0346 27.2384 52.9132 27.1146L48.8887 22.9999V27.2983H47.6426V21.4579C47.6426 21.2462 47.6935 21.0784 47.8032 20.9546C47.909 20.8268 48.0423 20.7668 48.2029 20.7668C48.3793 20.7668 48.5517 20.8507 48.7124 21.0145L53.3599 25.7843L58.0818 21.0145C58.2386 20.8507 58.4032 20.7668 58.5795 20.7668C58.7402 20.7668 58.8734 20.8308 58.9792 20.9546C59.085 21.0784 59.1399 21.2502 59.1399 21.4579V27.2983H59.132Z" fill="#EE9521"/>
<path d="M68.0121 27.2985H60.1748V20.8149H68.0121V22.0893H61.4209V22.8523H66.8012V24.1226H61.4209V26.0281H68.0121V27.2985Z" fill="#EE9521"/>
<path d="M76.8993 26.6672C76.8993 26.871 76.8444 27.0347 76.7386 27.1586C76.6328 27.2824 76.5035 27.3423 76.3468 27.3423C76.19 27.3423 76.0411 27.2824 75.8922 27.1666L70.3081 22.7643V27.2984H69.062V21.466C69.062 21.2623 69.1169 21.0985 69.2227 20.9747C69.3285 20.8508 69.4617 20.7909 69.6224 20.7909C69.783 20.7909 69.928 20.8508 70.0691 20.9667L75.6532 25.3689V20.8189H76.8993V26.6672Z" fill="#EE9521"/>
<path d="M85.6498 22.0893H82.3542V27.2985H81.1081V22.0893H77.8125V20.8149H85.6498V22.0893Z" fill="#EE9521"/>
<path d="M38.3636 15.9972C38.3636 16.2009 38.3088 16.3647 38.203 16.4885C38.0972 16.6124 37.9679 16.6723 37.8111 16.6723C37.6544 16.6723 37.5055 16.6124 37.3566 16.4965L31.7725 12.0943V16.6284H30.5264V10.796C30.5264 10.5922 30.5812 10.4284 30.687 10.3046C30.7928 10.1808 30.9261 10.1208 31.0867 10.1208C31.2474 10.1208 31.3924 10.1808 31.5335 10.2966L37.1175 14.6989V10.1488H38.3636V15.9972Z" fill="#010101"/>
<path d="M47.3016 16.6283H46.0555V14.603H40.7105V16.6283H39.4644V12.1981C39.4644 11.503 39.8092 10.9637 40.5067 10.5842C41.0357 10.2926 41.6235 10.1448 42.2779 10.1448H44.4136C45.0954 10.1448 45.7224 10.3126 46.2985 10.6441C46.9686 11.0356 47.3056 11.5549 47.3056 12.1981V16.6283H47.3016ZM46.0555 12.4737C46.0555 12.1861 45.8909 11.9384 45.5657 11.7347C45.2365 11.527 44.8525 11.4231 44.4136 11.4231H42.2779C41.9292 11.4231 41.5804 11.539 41.2317 11.7667C40.8829 11.9944 40.7105 12.2301 40.7105 12.4777V13.3366H46.0555V12.4777V12.4737Z" fill="#010101"/>
<path d="M59.9006 16.6283H58.6545V12.3139L54.5673 16.4525C54.4458 16.5684 54.3009 16.6283 54.1284 16.6283C53.956 16.6283 53.8032 16.5684 53.6817 16.4445L49.6573 12.3299V16.6283H48.4111V10.7879C48.4111 10.5762 48.4621 10.4084 48.5718 10.2846C48.6776 10.1567 48.8108 10.0968 48.9715 10.0968C49.1478 10.0968 49.3203 10.1807 49.4809 10.3445L54.1284 15.1143L58.8504 10.3445C59.0071 10.1807 59.1717 10.0968 59.3481 10.0968C59.5087 10.0968 59.642 10.1607 59.7478 10.2846C59.8536 10.4084 59.9084 10.5762 59.9084 10.7879V16.6283H59.9006Z" fill="#010101"/>
<path d="M68.8309 16.6283H67.5848V14.603H62.2398V16.6283H60.9937V12.1981C60.9937 11.503 61.3385 10.9637 62.036 10.5842C62.565 10.2926 63.1528 10.1448 63.8072 10.1448H65.9429C66.6247 10.1448 67.2517 10.3126 67.8278 10.6441C68.4979 11.0356 68.8349 11.5549 68.8349 12.1981V16.6283H68.8309ZM67.5809 12.4737C67.5809 12.1861 67.4163 11.9384 67.0911 11.7347C66.7619 11.527 66.3779 11.4231 65.939 11.4231H63.8033C63.4546 11.4231 63.1058 11.539 62.757 11.7667C62.4083 11.9944 62.2359 12.2301 62.2359 12.4777V13.3366H67.5809V12.4777V12.4737Z" fill="#010101"/>
<path d="M77.7694 15.9972C77.7694 16.2009 77.7145 16.3647 77.6087 16.4885C77.5029 16.6124 77.3736 16.6723 77.2169 16.6723C77.0601 16.6723 76.9112 16.6124 76.7623 16.4965L71.1783 12.0943V16.6284H69.9321V10.796C69.9321 10.5922 69.987 10.4284 70.0928 10.3046C70.1986 10.1808 70.3318 10.1208 70.4925 10.1208C70.6532 10.1208 70.7981 10.1808 70.9392 10.2966L76.5233 14.6989V10.1488H77.7694V15.9972Z" fill="#010101"/>
<path d="M86.9232 16.6283H81.8917C81.1981 16.6283 80.6142 16.5524 80.144 16.4006C79.4386 16.161 79.0859 15.7575 79.0859 15.1902V11.5949C79.0859 11.0396 79.4425 10.6402 80.1518 10.3925C80.626 10.2287 81.2059 10.1488 81.8878 10.1488H86.9193V11.4191H81.8799C80.8454 11.4191 80.3281 11.5989 80.3281 11.9544V14.8147C80.3281 15.1782 80.8454 15.358 81.8799 15.358H85.6732V13.4565H81.441V12.1861H86.2923C86.4647 12.1861 86.6136 12.2501 86.7351 12.3739C86.8605 12.4977 86.9193 12.6495 86.9193 12.8253V16.6323L86.9232 16.6283Z" fill="#010101"/>
<path d="M96.0614 16.6283H94.8153V14.603H89.4703V16.6283H88.2241V12.1981C88.2241 11.503 88.5729 10.9637 89.2665 10.5842C89.7955 10.2926 90.3872 10.1448 91.0377 10.1448H93.1734C93.8552 10.1448 94.4822 10.3126 95.0582 10.6441C95.7283 11.0356 96.0653 11.5549 96.0653 12.1981V16.6283H96.0614ZM94.8114 12.4737C94.8114 12.1861 94.6468 11.9384 94.3215 11.7347C93.9924 11.527 93.6083 11.4231 93.1694 11.4231H91.0338C90.685 11.4231 90.3363 11.539 89.9875 11.7667C89.6388 11.9944 89.4663 12.2301 89.4663 12.4777V13.3366H94.8114V12.4777V12.4737Z" fill="#010101"/>
<path d="M105 15.9972C105 16.2009 104.945 16.3647 104.839 16.4885C104.733 16.6124 104.604 16.6723 104.447 16.6723C104.291 16.6723 104.142 16.6124 103.993 16.4965L98.4087 12.0943V16.6284H97.1626V10.796C97.1626 10.5922 97.2175 10.4284 97.3233 10.3046C97.4291 10.1808 97.5623 10.1208 97.723 10.1208C97.8836 10.1208 98.0286 10.1808 98.1697 10.2966L103.754 14.6989V10.1488H105V15.9972Z" fill="#010101"/>
<path d="M21.9601 6.52953V7.42436C21.9601 7.57616 21.8387 7.7 21.6898 7.7H19.272C19.1231 7.7 19.0016 7.57616 19.0016 7.42436V7.36444L13.3822 3.75315C13.202 3.6373 12.9669 3.6373 12.7866 3.75315L7.64927 7.06483L7.35537 7.23261L5.22363 5.05945L12.2889 0.501395C12.7709 0.189802 13.3862 0.189802 13.8682 0.501395L21.2665 5.2512C21.6976 5.53083 21.9601 6.0102 21.9601 6.52953Z" fill="#EE9521"/>
<path d="M21.466 31.5529C21.2035 31.7925 20.8586 31.9364 20.4785 31.9364H5.73661C4.92153 31.9364 4.25928 31.2612 4.25928 30.4263V28.8164C4.25928 28.6646 4.38076 28.5408 4.52966 28.5408H6.94747C7.09637 28.5408 7.21785 28.6646 7.21785 28.8164V28.9163H18.5153C18.6133 28.9163 18.6603 28.7965 18.5937 28.7246L17.2888 27.3943L21.47 31.5489L21.466 31.5529Z" fill="#EE9521"/>
<path d="M26.1807 26.5275V27.0508C26.1807 27.5901 25.9221 28.1014 25.4714 28.377C25.2324 28.5249 24.9659 28.5968 24.7034 28.5968C24.3154 28.5968 23.9393 28.441 23.6532 28.1533L4.6713 8.76664C4.6713 8.76664 4.65954 8.75466 4.65562 8.75066C4.38915 8.46703 4.23633 8.09152 4.23633 7.70004V6.52956C4.23633 6.01424 4.49888 5.53087 4.92601 5.25523L5.21991 5.06348L7.35165 7.23664L8.46062 8.36716L8.83289 8.75066L23.2182 23.4435L26.1768 26.5315L26.1807 26.5275Z" fill="#EE9521"/>
<path d="M26.1803 7.9716V26.5274L23.2217 23.4394V7.9716C23.2217 7.82379 23.3392 7.69995 23.4842 7.69995H25.9138C26.0588 7.69995 26.1803 7.82379 26.1803 7.9716Z" fill="#010101"/>
<path d="M21.9601 28.5208V30.4263C21.9601 30.8737 21.7681 31.2772 21.4663 31.5528L17.2851 27.3983L2.96249 12.7933L0 9.70536V9.19403C0 8.63876 0.274305 8.11144 0.752379 7.8398C1.34018 7.50424 2.06121 7.6121 2.52752 8.08748L21.529 27.4542C21.8072 27.7378 21.964 28.1213 21.964 28.5208" fill="#010101"/>
<path d="M2.96249 12.7933V28.2731C2.96249 28.4209 2.84493 28.5447 2.69603 28.5447H0.266468C0.121478 28.5447 0 28.4249 0 28.2731V9.70532L2.95857 12.7933H2.96249Z" fill="#010101"/>
</svg>
