<svg width="106" height="36" viewBox="0 0 106 36" fill="none" xmlns="http://www.w3.org/2000/svg">
<g clip-path="url(#clip0_26_25)">
<path d="M37.752 16.3257V8.42432H40.4552L43.1017 14.7V8.42432H44.7568V16.3257H42.1346L39.4071 9.84729V16.3257H37.752Z" fill="#0D0E0E"/>
<path d="M44.8177 16.3865H42.0942L39.4679 10.1473V16.3865H37.6914V8.36755H40.4958L40.512 8.40404L43.0412 14.404V8.36755H44.8177V16.3865ZM42.1711 16.2649H44.6963V8.48918H43.1626V15L40.4149 8.48918H37.8128V16.2649H39.3465V9.54728L42.1752 16.2649H42.1711Z" fill="#0D0E0E"/>
<path d="M45.7808 16.3256L48.4597 8.42834H51.0294L53.6516 16.3256H51.9075L51.4017 14.7567H48.055L47.537 16.3256H45.7808ZM50.908 13.2202L49.7466 9.59997L48.5528 13.2202H50.908Z" fill="#0D0E0E"/>
<path d="M53.7406 16.3865H51.8669L51.3611 14.8176H48.1035L47.5855 16.3865H45.6997L48.4232 8.36755H51.0778L51.0899 8.40809L53.7406 16.3865ZM51.9519 16.2649H53.5706L50.9847 8.48918H48.5041L45.8656 16.2649H47.4965L48.0144 14.6959H51.4461L51.9519 16.2649ZM50.9888 13.2811H48.4677L49.7464 9.40134L50.9888 13.2811ZM48.6376 13.1594H50.8269L49.7505 9.79458L48.6417 13.1594H48.6376Z" fill="#0D0E0E"/>
<path d="M54.6104 16.3257V8.42432H57.2488L59.1872 14.9595L61.1215 8.42432H63.7681V16.3257H62.1373V10.1878L60.3243 16.3257H58.046L56.2452 10.2203V16.3257H54.6104Z" fill="#0D0E0E"/>
<path d="M63.8289 16.3865H62.0767V10.6054L60.369 16.3865H58.0017L57.9895 16.3419L56.3061 10.6378V16.3865H54.5498V8.36755H57.2894L59.1833 14.7486L61.0772 8.36755H63.8289V16.3865ZM62.1981 16.2649H63.7116V8.48918H61.1703L59.1874 15.1743L57.2045 8.48918H54.6753V16.2649H56.1887V9.80269L58.0947 16.2649H60.28L62.1981 9.77026V16.2649Z" fill="#0D0E0E"/>
<path d="M64.7598 16.3256L67.4387 8.42834H70.0084L72.6307 16.3256H70.8865L70.3807 14.7567H67.034L66.516 16.3256H64.7598ZM69.887 13.2202L68.7256 9.59997L67.5318 13.2202H69.887Z" fill="#0D0E0E"/>
<path d="M72.7157 16.3865H70.842L70.3362 14.8176H67.0786L66.5606 16.3865H64.6748L67.3983 8.36755H70.0529L70.065 8.40809L72.7157 16.3865ZM70.931 16.2649H72.5497L69.9639 8.48918H67.4832L64.8448 16.2649H66.4756L66.9936 14.6959H70.4252L70.931 16.2649ZM69.9679 13.2811H67.4468L68.7256 9.40134L69.9679 13.2811ZM67.6168 13.1594H69.8061L68.7296 9.79458L67.6208 13.1594H67.6168Z" fill="#0D0E0E"/>
<path d="M73.626 16.3257V8.42432H76.3292L78.9758 14.7V8.42432H80.6309V16.3257H78.0045L75.2811 9.84729V16.3257H73.626Z" fill="#0D0E0E"/>
<path d="M80.6917 16.3865H77.9683L75.3419 10.1473V16.3865H73.5654V8.36755H76.3698L76.386 8.40404L78.9152 14.404V8.36755H80.6917V16.3865ZM78.0452 16.2649H80.5703V8.48918H79.0366V15L76.2889 8.48918H73.6868V16.2649H75.2205V9.54728L78.0492 16.2649H78.0452Z" fill="#0D0E0E"/>
<path d="M81.5659 12.3851C81.5659 11.6554 81.748 10.9824 82.1122 10.3662C82.4764 9.74999 82.9661 9.25945 83.5812 8.89459C84.1963 8.52972 84.8681 8.34729 85.5965 8.34729C86.3977 8.34729 87.118 8.5581 87.7534 8.97972C88.3887 9.40134 88.8662 9.96891 89.19 10.6824L87.5794 11.1446C87.3932 10.7676 87.1221 10.4757 86.77 10.2689C86.4179 10.0622 86.0254 9.9608 85.6005 9.9608C85.1756 9.9608 84.7588 10.0662 84.4027 10.2811C84.0466 10.4959 83.7673 10.7878 83.565 11.1608C83.3627 11.5338 83.2615 11.9392 83.2615 12.3851C83.2615 12.8311 83.3627 13.2365 83.565 13.6054C83.7673 13.9743 84.0466 14.2662 84.4027 14.4811C84.7588 14.6959 85.1594 14.8013 85.6005 14.8013C85.9162 14.8013 86.2156 14.7486 86.5029 14.6392C86.7902 14.5297 87.0411 14.3635 87.2637 14.1365C87.4863 13.9095 87.6562 13.6378 87.7776 13.3135L85.6491 13.3257L85.6248 11.8946H89.4206V12.5392C89.4206 13.2851 89.2547 13.95 88.9188 14.5419C88.5829 15.1338 88.1257 15.5919 87.547 15.9243C86.9643 16.2567 86.3168 16.4189 85.6046 16.4189C84.8923 16.4189 84.2044 16.2365 83.5893 15.8757C82.9742 15.5149 82.4845 15.0243 82.1203 14.4081C81.7561 13.7919 81.574 13.1189 81.574 12.3892" fill="#0D0E0E"/>
<path d="M85.5966 16.4757C84.8601 16.4757 84.1722 16.2892 83.549 15.9244C82.9258 15.5595 82.424 15.0568 82.0598 14.4365C81.6915 13.8122 81.5054 13.123 81.5054 12.3852C81.5054 11.6473 81.6915 10.9581 82.0598 10.3338C82.428 9.7095 82.9298 9.20679 83.549 8.83788C84.1722 8.46896 84.8601 8.28247 85.5966 8.28247C86.406 8.28247 87.1465 8.49734 87.7859 8.92301C88.4253 9.34869 88.919 9.93247 89.2427 10.6541L89.271 10.719L87.5431 11.2136L87.5229 11.169C87.3408 10.8041 87.0777 10.5203 86.7337 10.3217C86.3898 10.123 86.0094 10.0217 85.5926 10.0217C85.1757 10.0217 84.7711 10.1271 84.4231 10.3338C84.0791 10.5406 83.8039 10.8284 83.6056 11.1892C83.4073 11.55 83.3102 11.9514 83.3102 12.3852C83.3102 12.819 83.4114 13.2163 83.6056 13.573C83.8039 13.9298 84.0791 14.2176 84.4231 14.4244C84.767 14.6311 85.1636 14.7365 85.5926 14.7365C85.9001 14.7365 86.1955 14.6838 86.4707 14.5784C86.7459 14.473 86.9968 14.3108 87.2113 14.0919C87.4055 13.8933 87.5633 13.65 87.6766 13.3703L85.5764 13.3825L85.5521 11.8298H89.4693V12.5352C89.4693 13.2852 89.2994 13.9703 88.9594 14.5663C88.6195 15.1622 88.1501 15.6365 87.5633 15.969C86.9765 16.3054 86.3088 16.4757 85.5885 16.4757M85.5966 8.40815C84.8803 8.40815 84.2126 8.59058 83.6097 8.94734C83.0067 9.30409 82.5171 9.79463 82.1609 10.3987C81.8048 11.0027 81.6227 11.6717 81.6227 12.3892C81.6227 13.1068 81.8048 13.7757 82.1609 14.3798C82.5171 14.9838 83.0067 15.4703 83.6097 15.823C84.2126 16.1757 84.8803 16.3581 85.5966 16.3581C86.3129 16.3581 86.9401 16.1919 87.5107 15.8676C88.0813 15.5433 88.5345 15.0852 88.8623 14.5095C89.1901 13.9298 89.356 13.269 89.356 12.5352V11.9514H85.6816L85.7018 13.2608L87.8587 13.2487L87.8264 13.3298C87.705 13.6581 87.5269 13.946 87.3003 14.173C87.0737 14.4041 86.8106 14.5784 86.5193 14.6879C86.2279 14.7973 85.9163 14.8541 85.5966 14.8541C85.1434 14.8541 84.7306 14.7446 84.3664 14.5257C84.0022 14.3068 83.7108 14.0068 83.5045 13.6298C83.2981 13.2527 83.1929 12.8352 83.1929 12.3811C83.1929 11.9271 83.2981 11.5054 83.5045 11.1284C83.7108 10.7473 84.0022 10.4433 84.3664 10.2244C84.7306 10.0054 85.1434 9.89598 85.5966 9.89598C86.0498 9.89598 86.4383 10.0014 86.7985 10.2163C87.1465 10.419 87.4176 10.7068 87.6119 11.0717L89.1092 10.6419C88.7935 9.96896 88.3282 9.42977 87.7252 9.02842C87.102 8.6149 86.3898 8.40815 85.6007 8.40815" fill="#0D0E0E"/>
<path d="M90.0679 16.3256L92.7468 8.42834H95.3165L97.9388 16.3256H96.1946L95.6888 14.7567H92.3421L91.8241 16.3256H90.0679ZM95.1951 13.2202L94.0337 9.59997L92.8399 13.2202H95.1951Z" fill="#0D0E0E"/>
<path d="M98.0282 16.3865H96.1545L95.6487 14.8176H92.3911L91.8731 16.3865H89.9873L92.7108 8.36755H95.3654L95.3775 8.40809L98.0282 16.3865ZM96.2395 16.2649H97.8582L95.2723 8.48918H92.7917L90.1532 16.2649H91.7841L92.302 14.6959H95.7337L96.2395 16.2649ZM95.2764 13.2811H92.7553L94.034 9.40134L95.2764 13.2811ZM92.9252 13.1594H95.1145L94.0381 9.79458L92.9293 13.1594H92.9252Z" fill="#0D0E0E"/>
<path d="M98.9346 16.3257V8.42432H101.638L104.284 14.7V8.42432H105.939V16.3257H103.313L100.59 9.84729V16.3257H98.9346Z" fill="#0D0E0E"/>
<path d="M106 16.3865H103.276L100.65 10.1473V16.3865H98.8735V8.36755H101.678L101.694 8.40404L104.223 14.404V8.36755H106V16.3865ZM103.353 16.2649H105.878V8.48918H104.345V15L101.597 8.48918H98.9949V16.2649H100.529V9.54728L103.353 16.2649Z" fill="#0D0E0E"/>
<path d="M37.4365 23.6229C37.4365 22.8932 37.6186 22.2202 37.9828 21.604C38.347 20.9878 38.8367 20.4972 39.4518 20.1324C40.0669 19.7675 40.7387 19.5851 41.4671 19.5851C42.1955 19.5851 42.8672 19.7675 43.4823 20.1324C44.0974 20.4972 44.5871 20.9878 44.9513 21.604C45.3155 22.2202 45.4976 22.8932 45.4976 23.6229C45.4976 24.0972 45.4167 24.5513 45.2629 24.981C45.1051 25.4148 44.8825 25.8081 44.5992 26.1608L45.8942 27.5594H44.0934L43.6078 27.0283C43.2921 27.231 42.9563 27.3851 42.5921 27.4905C42.2319 27.5959 41.8556 27.6486 41.4671 27.6486C40.7387 27.6486 40.0669 27.4662 39.4518 27.1054C38.8367 26.7445 38.347 26.254 37.9828 25.6378C37.6186 25.0216 37.4365 24.3486 37.4365 23.6189M39.4316 24.8554C39.6339 25.2324 39.9131 25.5283 40.2692 25.7472C40.6253 25.9662 41.026 26.0756 41.4671 26.0756C41.6532 26.0756 41.8353 26.0554 42.0093 26.0148C42.1833 25.9743 42.3452 25.9135 42.5071 25.8405L40.7508 23.9351H42.5516L43.4621 24.9283C43.5754 24.7418 43.6604 24.5351 43.7211 24.3121C43.7818 24.0891 43.8101 23.8621 43.8101 23.631C43.8101 23.1891 43.709 22.7756 43.5066 22.4026C43.3043 22.0256 43.0251 21.7256 42.6689 21.5067C42.3128 21.2837 41.9122 21.1743 41.4711 21.1743C41.03 21.1743 40.6375 21.2837 40.2773 21.5067C39.9172 21.7297 39.6339 22.0297 39.4316 22.4026C39.2292 22.7797 39.1281 23.1891 39.1281 23.631C39.1281 24.0729 39.2292 24.4864 39.4316 24.8594" fill="#0D0E0E"/>
<path d="M41.4667 27.7135C40.7302 27.7135 40.0423 27.527 39.4191 27.1622C38.7959 26.7973 38.2941 26.2946 37.9299 25.6743C37.5616 25.05 37.3755 24.3608 37.3755 23.623C37.3755 22.8851 37.5616 22.1959 37.9299 21.5716C38.2981 20.9473 38.7999 20.4446 39.4191 20.0757C40.0423 19.7067 40.7302 19.5203 41.4667 19.5203C42.2032 19.5203 42.8912 19.7067 43.5144 20.0757C44.1376 20.4446 44.6394 20.9473 45.0036 21.5716C45.3718 22.1959 45.558 22.8851 45.558 23.623C45.558 24.1013 45.477 24.5676 45.3192 25.0054C45.1654 25.427 44.951 25.8122 44.6798 26.1608L46.0355 27.6243H44.0688L43.5994 27.1135C43.2918 27.304 42.96 27.454 42.612 27.5554C42.2478 27.6608 41.8633 27.7176 41.4708 27.7176M41.4667 19.6459C40.7505 19.6459 40.0827 19.8284 39.4798 20.1851C38.8768 20.5419 38.3872 21.0324 38.0311 21.6365C37.6749 22.2405 37.4928 22.9095 37.4928 23.627C37.4928 24.3446 37.6749 25.0135 38.0311 25.6176C38.3872 26.2216 38.8768 26.7081 39.4798 27.0649C40.0827 27.4176 40.7505 27.5959 41.4667 27.5959C41.8471 27.5959 42.2235 27.5432 42.5755 27.4419C42.9276 27.3405 43.2635 27.1865 43.5751 26.9878L43.6196 26.9595L44.1214 27.5067H45.7563L44.518 26.173L44.5503 26.1324C44.8296 25.7838 45.0521 25.3946 45.2059 24.9689C45.3597 24.5432 45.4406 24.0932 45.4406 23.6311C45.4406 22.9176 45.2585 22.2446 44.9024 21.6405C44.5463 21.0365 44.0566 20.5459 43.4537 20.1892C42.8507 19.8324 42.183 19.65 41.4667 19.65M41.4667 26.1324C41.0135 26.1324 40.6007 26.0189 40.2365 25.7959C39.8723 25.573 39.581 25.2649 39.3746 24.8838C39.1682 24.4986 39.063 24.077 39.063 23.627C39.063 23.177 39.1682 22.7513 39.3746 22.3703C39.581 21.9851 39.8723 21.677 40.2406 21.45C40.6088 21.223 41.0216 21.1095 41.4667 21.1095C41.9119 21.1095 42.3327 21.223 42.6969 21.45C43.0611 21.677 43.3525 21.9851 43.5589 22.3703C43.7653 22.7554 43.8705 23.177 43.8705 23.627C43.8705 23.8662 43.8381 24.0973 43.7774 24.3243C43.7167 24.5513 43.6277 24.7622 43.5103 24.9527L43.4699 25.0216L42.5189 23.9878H40.88L42.5998 25.8527L42.527 25.8892C42.3651 25.9662 42.1951 26.027 42.0211 26.0676C41.8431 26.1081 41.6569 26.1324 41.4667 26.1324ZM41.4667 21.223C41.0459 21.223 40.6533 21.3324 40.3053 21.5473C39.9573 21.7622 39.6781 22.0581 39.4838 22.423C39.2855 22.7878 39.1884 23.1932 39.1884 23.623C39.1884 24.0527 39.2896 24.4581 39.4838 24.823C39.6821 25.1878 39.9533 25.4797 40.3013 25.6905C40.6452 25.9013 41.0378 26.0108 41.4708 26.0108C41.6529 26.0108 41.8309 25.9905 41.9969 25.95C42.1385 25.9176 42.2761 25.8689 42.4056 25.8122L40.6129 23.8662H42.5796L43.4537 24.8189C43.5427 24.6568 43.6155 24.4784 43.6682 24.2919C43.7248 24.077 43.7572 23.85 43.7572 23.623C43.7572 23.1932 43.656 22.7878 43.4618 22.423C43.2675 22.0581 42.9923 21.7662 42.6443 21.5473C42.3004 21.3324 41.9078 21.223 41.4789 21.223" fill="#0D0E0E"/>
<path d="M46.4562 23.6229C46.4562 22.8932 46.6383 22.2202 47.0025 21.604C47.3667 20.9878 47.8564 20.4972 48.4715 20.1324C49.0866 19.7675 49.7583 19.5851 50.4867 19.5851C51.2151 19.5851 51.8869 19.7675 52.502 20.1324C53.1171 20.4972 53.6068 20.9878 53.971 21.604C54.3352 22.2202 54.5173 22.8932 54.5173 23.6229C54.5173 24.3526 54.3352 25.0256 53.975 25.6418C53.6149 26.2581 53.1252 26.7486 52.5061 27.1094C51.8869 27.4702 51.2111 27.6526 50.4827 27.6526C49.7543 27.6526 49.0825 27.4702 48.4674 27.1094C47.8523 26.7486 47.3627 26.2581 46.9985 25.6418C46.6343 25.0256 46.4521 24.3526 46.4521 23.6229M48.1477 23.6229C48.1477 24.0689 48.2489 24.4783 48.4512 24.8513C48.6536 25.2283 48.9328 25.5243 49.2889 25.7432C49.645 25.9621 50.0456 26.0716 50.4867 26.0716C50.9278 26.0716 51.3285 25.9621 51.6886 25.7432C52.0447 25.5243 52.324 25.2283 52.5263 24.8513C52.7286 24.4743 52.8298 24.0648 52.8298 23.6229C52.8298 23.181 52.7286 22.7675 52.5263 22.3945C52.324 22.0216 52.0447 21.7175 51.6886 21.4986C51.3325 21.2756 50.9319 21.1662 50.4867 21.1662C50.0416 21.1662 49.6531 21.2756 49.293 21.4986C48.9328 21.7216 48.6495 22.0175 48.4472 22.3945C48.2448 22.7716 48.1437 23.181 48.1437 23.6229" fill="#0D0E0E"/>
<path d="M50.4911 27.7135C49.7546 27.7135 49.0667 27.527 48.4435 27.1622C47.8203 26.7973 47.3185 26.2946 46.9543 25.6743C46.586 25.05 46.3999 24.3608 46.3999 23.623C46.3999 22.8851 46.586 22.1959 46.9543 21.5716C47.3226 20.9473 47.8243 20.4446 48.4435 20.0757C49.0667 19.7067 49.7546 19.5203 50.4911 19.5203C51.2276 19.5203 51.9156 19.7067 52.5388 20.0757C53.162 20.4446 53.6638 20.9473 54.028 21.5716C54.3962 22.1959 54.5824 22.8851 54.5824 23.623C54.5824 24.3608 54.3962 25.05 54.032 25.6743C53.6678 26.2986 53.166 26.7973 52.5428 27.1622C51.9156 27.527 51.2276 27.7135 50.4911 27.7135ZM50.4911 19.6459C49.7749 19.6459 49.1072 19.8284 48.5042 20.1851C47.9012 20.5419 47.4116 21.0324 47.0555 21.6365C46.6994 22.2405 46.5173 22.9095 46.5173 23.627C46.5173 24.3446 46.6994 25.0135 47.0555 25.6176C47.4116 26.2216 47.9012 26.7081 48.5042 27.0649C49.1072 27.4176 49.7749 27.5959 50.4911 27.5959C51.2074 27.5959 51.8751 27.4176 52.4821 27.0649C53.0891 26.7122 53.5788 26.2257 53.9309 25.6216C54.2829 25.0176 54.465 24.3486 54.465 23.6311C54.465 22.9135 54.2829 22.2446 53.9268 21.6405C53.5707 21.0365 53.081 20.5459 52.4781 20.1892C51.8751 19.8324 51.2074 19.65 50.4911 19.65M50.4911 26.1324C50.0379 26.1324 49.6251 26.0189 49.2609 25.7959C48.8967 25.573 48.6054 25.2649 48.399 24.8838C48.1926 24.4986 48.0874 24.077 48.0874 23.627C48.0874 23.177 48.1926 22.7513 48.399 22.3703C48.6054 21.9851 48.8967 21.677 49.265 21.45C49.6332 21.223 50.046 21.1095 50.4911 21.1095C50.9363 21.1095 51.3571 21.223 51.7213 21.45C52.0856 21.677 52.3769 21.9851 52.5833 22.3703C52.7897 22.7554 52.8949 23.177 52.8949 23.627C52.8949 24.077 52.7897 24.5027 52.5833 24.8838C52.3769 25.2689 52.0856 25.577 51.7213 25.7959C51.3571 26.0189 50.9444 26.1324 50.4911 26.1324ZM50.4911 21.223C50.0703 21.223 49.6778 21.3324 49.3297 21.5473C48.9817 21.7622 48.7025 22.0581 48.5082 22.423C48.31 22.7878 48.2128 23.1932 48.2128 23.623C48.2128 24.0527 48.314 24.4581 48.5082 24.823C48.7065 25.1878 48.9777 25.4797 49.3257 25.6905C49.6697 25.9013 50.0622 26.0108 50.4952 26.0108C50.9282 26.0108 51.3167 25.9054 51.6647 25.6905C52.0087 25.4797 52.2838 25.1878 52.4821 24.823C52.6804 24.4581 52.7775 24.0527 52.7775 23.623C52.7775 23.1932 52.6764 22.7878 52.4821 22.423C52.2879 22.0581 52.0127 21.7662 51.6647 21.5473C51.3207 21.3324 50.9282 21.223 50.4992 21.223" fill="#0D0E0E"/>
<path d="M55.1406 23.6229C55.1406 22.8932 55.3227 22.2202 55.6869 21.604C56.0511 20.9878 56.5408 20.4972 57.1559 20.1324C57.771 19.7675 58.4428 19.5851 59.1712 19.5851C59.9724 19.5851 60.6927 19.7959 61.3281 20.2175C61.9634 20.6391 62.4409 21.2067 62.7647 21.9202L61.1541 22.3824C60.9679 22.0054 60.6968 21.7135 60.3447 21.5067C59.9927 21.2999 59.6001 21.1986 59.1752 21.1986C58.7503 21.1986 58.3335 21.304 57.9774 21.5189C57.6213 21.7337 57.342 22.0256 57.1397 22.3986C56.9374 22.7716 56.8362 23.177 56.8362 23.6229C56.8362 24.0689 56.9374 24.4743 57.1397 24.8432C57.342 25.2121 57.6213 25.504 57.9774 25.7189C58.3335 25.9337 58.7341 26.0391 59.1752 26.0391C59.4909 26.0391 59.7903 25.9864 60.0776 25.877C60.365 25.7675 60.6158 25.6013 60.8384 25.3743C61.061 25.1472 61.231 24.8756 61.3524 24.5513L59.2238 24.5635L59.1995 23.1324H62.9953V23.777C62.9953 24.5229 62.8294 25.1878 62.4935 25.7797C62.1577 26.3716 61.7004 26.8297 61.1217 27.1621C60.539 27.4945 59.8915 27.6567 59.1793 27.6567C58.467 27.6567 57.7791 27.4743 57.164 27.1135C56.5489 26.7526 56.0592 26.2621 55.695 25.6459C55.3308 25.0297 55.1487 24.3567 55.1487 23.627" fill="#0D0E0E"/>
<path d="M59.1752 27.7135C58.4387 27.7135 57.7508 27.527 57.1276 27.1621C56.5044 26.7973 56.0026 26.2946 55.6384 25.6743C55.2701 25.05 55.084 24.3608 55.084 23.6229C55.084 22.8851 55.2701 22.1959 55.6384 21.5716C56.0066 20.9473 56.5084 20.4486 57.1276 20.0797C57.7508 19.7108 58.4387 19.5243 59.1752 19.5243C59.9846 19.5243 60.7251 19.7392 61.3645 20.1648C62.0039 20.5905 62.4976 21.1743 62.8213 21.8959L62.8497 21.9608L61.1217 22.4554L61.1015 22.4108C60.9194 22.0459 60.6563 21.7621 60.3124 21.5635C59.9684 21.3648 59.588 21.2635 59.1712 21.2635C58.7544 21.2635 58.3497 21.3689 58.0017 21.5756C57.6577 21.7824 57.3825 22.0702 57.1842 22.431C56.9859 22.7919 56.8888 23.1932 56.8888 23.627C56.8888 24.0608 56.99 24.4581 57.1842 24.8148C57.3825 25.1716 57.6577 25.4594 58.0017 25.6662C58.3457 25.8729 58.7422 25.9783 59.1712 25.9783C59.4787 25.9783 59.7741 25.9256 60.0493 25.8202C60.3245 25.7148 60.5754 25.5527 60.7899 25.3338C60.9841 25.1351 61.1419 24.8919 61.2552 24.6121L59.155 24.6243L59.1307 23.0716H63.0479V23.777C63.0479 24.527 62.878 25.2121 62.5381 25.8081C62.1981 26.404 61.7287 26.8783 61.1419 27.2108C60.5552 27.5473 59.8875 27.7175 59.1671 27.7175M59.1752 19.6459C58.459 19.6459 57.7913 19.8283 57.1883 20.1851C56.5853 20.5419 56.0957 21.0324 55.7396 21.6365C55.3834 22.2405 55.2013 22.9094 55.2013 23.627C55.2013 24.3446 55.3834 25.0135 55.7396 25.6175C56.0957 26.2216 56.5853 26.7081 57.1883 27.0608C57.7913 27.4135 58.459 27.5959 59.1752 27.5959C59.8915 27.5959 60.5187 27.4297 61.0893 27.1054C61.6599 26.781 62.1132 26.3229 62.4409 25.7473C62.7687 25.1675 62.9346 24.5027 62.9346 23.7729V23.1892H59.2602L59.2804 24.4986L61.4374 24.4865L61.405 24.5675C61.2836 24.8959 61.1055 25.1838 60.8789 25.4108C60.6523 25.6419 60.3892 25.8162 60.0979 25.9256C59.8065 26.0351 59.4949 26.0919 59.1752 26.0919C58.722 26.0919 58.3092 25.9824 57.945 25.7635C57.5808 25.5446 57.2895 25.2446 57.0831 24.8675C56.8767 24.4905 56.7715 24.0729 56.7715 23.6189C56.7715 23.1648 56.8767 22.7432 57.0831 22.3662C57.2895 21.9851 57.5808 21.681 57.945 21.4621C58.3092 21.2432 58.722 21.1338 59.1752 21.1338C59.6285 21.1338 60.0169 21.2392 60.3771 21.454C60.7251 21.6567 60.9963 21.9446 61.1905 22.3094L62.6878 21.8797C62.3721 21.2067 61.9068 20.6675 61.3038 20.2662C60.6806 19.8527 59.9684 19.6459 59.1793 19.6459" fill="#0D0E0E"/>
<path d="M64.2416 19.6621H65.832L64.8972 22.7675H63.667L64.2416 19.6621Z" fill="#0D0E0E"/>
<path d="M64.9418 22.8283H63.5942L64.1932 19.6053H65.913L64.9418 22.8283ZM63.7399 22.7067H64.8487L65.7471 19.727H64.2903L63.7399 22.7067Z" fill="#0D0E0E"/>
<path d="M66.5646 23.6229C66.5646 22.8932 66.7467 22.2202 67.1109 21.604C67.4751 20.9878 67.9648 20.4972 68.5799 20.1324C69.195 19.7675 69.8667 19.5851 70.5951 19.5851C71.3235 19.5851 71.9953 19.7675 72.6104 20.1324C73.2255 20.4972 73.7152 20.9878 74.0794 21.604C74.4436 22.2202 74.6257 22.8932 74.6257 23.6229C74.6257 24.3526 74.4436 25.0256 74.0834 25.6418C73.7233 26.2581 73.2336 26.7486 72.6145 27.1094C71.9953 27.4702 71.3195 27.6526 70.5911 27.6526C69.8627 27.6526 69.1909 27.4702 68.5758 27.1094C67.9607 26.7486 67.4711 26.2581 67.1069 25.6418C66.7427 25.0256 66.5605 24.3526 66.5605 23.6229M68.2521 23.6229C68.2521 24.0689 68.3533 24.4783 68.5556 24.8513C68.7579 25.2283 69.0371 25.5243 69.3933 25.7432C69.7494 25.9621 70.15 26.0716 70.5911 26.0716C71.0322 26.0716 71.4328 25.9621 71.793 25.7432C72.1491 25.5243 72.4283 25.2283 72.6306 24.8513C72.833 24.4743 72.9341 24.0648 72.9341 23.6229C72.9341 23.181 72.833 22.7675 72.6306 22.3945C72.4283 22.0216 72.1491 21.7175 71.793 21.4986C71.4369 21.2756 71.0362 21.1662 70.5911 21.1662C70.146 21.1662 69.7575 21.2756 69.3973 21.4986C69.0371 21.7216 68.7539 22.0175 68.5515 22.3945C68.3492 22.7716 68.248 23.181 68.248 23.6229" fill="#0D0E0E"/>
<path d="M70.5951 27.7135C69.8586 27.7135 69.1707 27.527 68.5475 27.1622C67.9243 26.7973 67.4225 26.2946 67.0583 25.6743C66.6901 25.05 66.5039 24.3608 66.5039 23.623C66.5039 22.8851 66.6901 22.1959 67.0583 21.5716C67.4266 20.9473 67.9284 20.4446 68.5475 20.0757C69.1707 19.7067 69.8586 19.5203 70.5951 19.5203C71.3317 19.5203 72.0196 19.7067 72.6428 20.0757C73.266 20.4446 73.7678 20.9473 74.132 21.5716C74.5002 22.1959 74.6864 22.8851 74.6864 23.623C74.6864 24.3608 74.5002 25.05 74.136 25.6743C73.7718 26.2986 73.27 26.7973 72.6468 27.1622C72.0196 27.527 71.3317 27.7135 70.5951 27.7135ZM70.5951 19.6459C69.8789 19.6459 69.2112 19.8284 68.6082 20.1851C68.0052 20.5419 67.5156 21.0324 67.1595 21.6365C66.8034 22.2405 66.6213 22.9095 66.6213 23.627C66.6213 24.3446 66.8034 25.0135 67.1595 25.6176C67.5156 26.2216 68.0052 26.7081 68.6082 27.0649C69.2112 27.4176 69.8789 27.5959 70.5951 27.5959C71.3114 27.5959 71.9791 27.4176 72.5861 27.0649C73.1931 26.7122 73.6828 26.2257 74.0349 25.6216C74.3869 25.0176 74.569 24.3486 74.569 23.6311C74.569 22.9135 74.3869 22.2446 74.0308 21.6405C73.6747 21.0365 73.1851 20.5459 72.5821 20.1892C71.9791 19.8324 71.3114 19.65 70.5951 19.65M70.5951 26.1324C70.1419 26.1324 69.7292 26.0189 69.3649 25.7959C69.0007 25.573 68.7094 25.2649 68.503 24.8838C68.2966 24.4986 68.1914 24.077 68.1914 23.627C68.1914 23.177 68.2966 22.7513 68.503 22.3703C68.7094 21.9851 69.0007 21.677 69.369 21.45C69.7372 21.223 70.15 21.1095 70.5951 21.1095C71.0403 21.1095 71.4612 21.223 71.8254 21.45C72.1896 21.677 72.4809 21.9851 72.6873 22.3703C72.8937 22.7554 72.9989 23.177 72.9989 23.627C72.9989 24.077 72.8937 24.5027 72.6873 24.8838C72.4809 25.2689 72.1896 25.577 71.8254 25.7959C71.4612 26.0189 71.0484 26.1324 70.5951 26.1324ZM70.5951 21.223C70.1743 21.223 69.7818 21.3324 69.4337 21.5473C69.0857 21.7622 68.8065 22.0581 68.6123 22.423C68.414 22.7878 68.3168 23.1932 68.3168 23.623C68.3168 24.0527 68.418 24.4581 68.6123 24.823C68.8105 25.1878 69.0817 25.4797 69.4297 25.6905C69.7737 25.9013 70.1662 26.0108 70.5992 26.0108C71.0322 26.0108 71.4207 25.9054 71.7687 25.6905C72.1127 25.4797 72.3878 25.1878 72.5861 24.823C72.7844 24.4581 72.8816 24.0527 72.8816 23.623C72.8816 23.1932 72.7804 22.7878 72.5861 22.423C72.3919 22.0581 72.1167 21.7662 71.7687 21.5473C71.4247 21.3324 71.0322 21.223 70.6032 21.223" fill="#0D0E0E"/>
<path d="M75.4717 27.5635V25.7918L79.2554 21.2432H75.4717V19.6621H81.3759V21.1175L77.2968 25.9945L81.2625 26.0067V27.5635H75.4717Z" fill="#0D0E0E"/>
<path d="M81.3233 27.6243H75.415V25.7716L79.1299 21.308H75.415V19.6053H81.4366V21.1418L77.4263 25.9337L81.3233 25.9459V27.6243ZM75.5324 27.5026H81.2019V26.0675L77.1673 26.0553L81.3152 21.0972V19.7229H75.5324V21.1824H79.3849L75.5324 25.8121V27.5026Z" fill="#0D0E0E"/>
<path d="M84.3134 19.6621H82.6138V27.5594H84.3134V19.6621Z" fill="#0D0E0E"/>
<path d="M84.3743 27.6243H82.5532V19.6053H84.3743V27.6243ZM82.6746 27.5026H84.2528V19.727H82.6746V27.5026Z" fill="#0D0E0E"/>
<path d="M6.27243 15.7054H0C0.291364 11.6473 2.00718 7.86892 4.90868 4.96216C8.10155 1.76351 12.3506 0 16.8668 0C21.3829 0 25.6279 1.76351 28.8248 4.96216C31.7264 7.86892 33.4422 11.6473 33.7335 15.7054H27.4611C26.85 10.3946 22.3339 6.25946 16.8708 6.25946C11.4077 6.25946 6.89158 10.3986 6.28052 15.7054" fill="#E32D26"/>
<path d="M33.7253 18.2351C33.5189 20.9635 32.6569 23.5986 31.2042 25.9216L30.5162 27.0243C30.326 26.9229 30.1358 26.8297 29.9375 26.7365C27.987 25.8243 25.8989 25.4148 24.2681 25.2324L25.911 22.6013C26.7406 21.2756 27.2626 19.7838 27.4488 18.2351H33.7253Z" fill="#8C1B1B"/>
<path d="M33.1587 31.4595L28.7964 36C26.9308 34.0095 22.8801 33.8797 21.8765 33.8797H16.8626C12.3464 33.8797 8.10141 32.1162 4.90449 28.9176C2.02322 26.027 0.307411 22.2689 0.00390625 18.2311H6.28038C6.91976 23.5135 11.4238 27.6203 16.8626 27.6203H21.8765C23.2443 27.6203 26.7649 27.7824 29.9295 29.2622C31.192 29.85 32.2725 30.5919 33.1547 31.4595" fill="#8C1B1B"/>
</g>
<defs>
<clipPath id="clip0_26_25">
<rect width="106" height="36" fill="white"/>
</clipPath>
</defs>
</svg>
