<svg width="40" height="40" viewBox="0 0 40 40" fill="none" xmlns="http://www.w3.org/2000/svg">
  <path d="M20 4C11.1634 4 4 11.1634 4 20C4 21.3653 4.17117 22.6906 4.49392 23.9535L9.63853 23.9535C9.223 22.7163 9 21.3853 9 20C9 13.9249 13.9249 9 20 9C26.0751 9 31 13.9249 31 20C31 21.3853 30.777 22.7163 30.3615 23.9535L35.5061 23.9535C35.8288 22.6906 36 21.3653 36 20C36 11.1634 28.8366 4 20 4Z" fill="#FF8200"/>
  <path d="M12.1969 31C14.4988 33.5135 17.0654 35 20 35C22.9346 35 25.5012 33.5135 27.8031 31H34.3312C32.0625 34.381 29.5 37 20 37C10.5 37 7.9375 34.381 5.66875 31H12.1969Z" fill="#FF8200"/>
  <rect x="25" y="27" width="12" height="6" rx="3" transform="rotate(45 25 27)" fill="#FF8200"/>
</svg>
